<svg xmlns="http://www.w3.org/2000/svg" width="720" height="720" viewBox="459 415 720 720"><defs><clipPath id="a"><path d="M954.45 490.46H1099V635H954.45Zm0 0"/></clipPath></defs><path d="m1009.428 827.252 5.78 86.078h-5.78q-11.58-38.655-33.047-55.64-21.47-16.999-51.532-17-25.206 0-45.562 12.797-20.344 12.783-32.016 40.796-11.671 28.003-11.672 69.641 0 34.36 11.016 59.563t33.14 38.656q22.125 13.438 50.5 13.437 24.656 0 43.516-10.547 18.855-10.545 41.438-41.921l5.797 3.734q-19.05 33.798-44.438 49.484c-16.93 10.446-37.031 15.672-60.312 15.672q-62.924.002-97.469-46.672c-17.18-23.156-25.766-50.414-25.766-81.781q-.001-37.906 16.985-69.64 16.997-31.748 46.781-49.204 29.78-17.451 65.078-17.453 27.434 0 54.14 13.438 7.84 4.111 11.204 4.109 5.044.002 8.781-3.547 4.842-5.045 6.906-14ZM647.8 704.757v6.906H539.314v-6.906h8.969q15.685.001 22.781-9.156 4.483-5.968 4.484-28.75V503.288q0-19.231-2.437-25.39-1.862-4.67-7.656-8.032-8.207-4.483-17.172-4.484h-8.969v-6.906h108.484v6.906h-9.14c-10.336 0-17.867 3.055-22.594 9.156q-4.674 5.97-4.672 28.75v163.563q-.002 19.237 2.422 25.39 1.874 4.674 7.844 8.032 8.028 4.486 17 4.484Zm0 0"/><path fill="none" stroke="#000" stroke-linecap="round" stroke-width="3" d="M895.71 663.836 594.7 876.953"/><g clip-path="url(#a)"><path d="M1026.707 490.46c-7.039 59.509-12.75 65.216-72.258 72.259.125.015.246.027.371.043v.004-.004c59.16 7.023 64.86 12.832 71.887 72.215 7.043-59.508 12.754-65.215 72.258-72.258-59.504-7.043-65.215-12.75-72.258-72.258m0 0"/></g></svg>